# xmcd CD database file
# Copyright (C) 1993-1998 Ti Kan
#
# Track frame offsets:
#	182
#	19115
#	38050
#	60125
#	70907
#	92425
#	111107
#	126620
#	149807
#	179700
#
# Disc length: 2693 seconds
#
# Revision: 1
# Processed by: cddbd v1.4b41PL1 Copyright (c) Steve Scherf et al.
# Submitted via: CDValet v3.31 - Copyright (c) 1997 Greg Leichner
#
DISCID=8f0a830a
DTITLE=Various Artist - huH CD 3
DYEAR=1900
DGENRE=
TTITLE0=Yeah, Shawty, Yeah (DJ Kizzy Rock)
TTITLE1=Hold On (Brand Nubian)
TTITLE2=Dream Team (Spearhead)
TTITLE3=Get Off My Log (Milk)
TTITLE4=Take You There (Pete Rock and CL Smooth)
TTITLE5=Mama, I'm In Love (Coolio)
TTITLE6=Here (Luscious Jackson)
TTITLE7=Overjoyed (The Boys Choir Of Harlem)
TTITLE8=Tempted (Waterlillies)
TTITLE9=Undertow (Lush)
EXTD=
EXTT0=
EXTT1=
EXTT2=
EXTT3=
EXTT4=
EXTT5=
EXTT6=
EXTT7=
EXTT8=
EXTT9=
PLAYORDER=
